# xmcd CD database file
#
# Track frame offsets:
#	150
#	18859
#	40340
#	71591
#	104147
#	145784
#	163262
#
# Disc length: 2604 seconds
#
# Revision: 0
# Processed by: cddbd v1.5.2PL0 Copyright (c) Steve Scherf et al.
# Submitted via: CDex 1.51
#
DISCID=600a2a07
DTITLE=Sam Rivers - Contrasts
DYEAR=1900
DGENRE=Jazz
TTITLE0=Circles
TTITLE1=Zip
TTITLE2=Solace
TTITLE3=Verve
TTITLE4=Dazzle
TTITLE5=Images
TTITLE6=Lines
EXTD=
EXTT0=
EXTT1=
EXTT2=
EXTT3=
EXTT4=
EXTT5=
EXTT6=
PLAYORDER=
